# xmcd CD database file
#
# Track frame offsets:
#	150
#	37877
#	74750
#	109597
#	151180
#	183045
#	219555
#	253590
#	279145
#
# Disc length: 4462 seconds
#
# Revision: 0
# Processed by: cddbd v1.4PL0 Copyright (c) Steve Scherf et al.
# Submitted via: CDex 1.50
#
DISCID=72116c09
DTITLE=Zone Indigène - Yves Léveillé
DYEAR=2001
DGENRE=Jazz
TTITLE0=Blues sur écoute
TTITLE1=Clair-Obscur
TTITLE2=Dirigeable
TTITLE3=L'alchimiste
TTITLE4=L'eau du pont de pierre
TTITLE5=Dissidence
TTITLE6=Le Fjord
TTITLE7=Attrape!
TTITLE8=Zone Indigène
EXTD=YEAR: 2001
EXTT0=
EXTT1=
EXTT2=
EXTT3=
EXTT4=
EXTT5=
EXTT6=
EXTT7=
EXTT8=
PLAYORDER=
